<mxfile host="app.diagrams.net" agent="Mozilla/5.0 (Windows NT 10.0; Win64; x64) AppleWebKit/537.36 (KHTML, like Gecko) Chrome/134.0.0.0 Safari/537.36" version="26.1.1">
  <diagram name="第 1 页" id="UxCV0JXPSr8hyArvY_jP">
    <mxGraphModel dx="1221" dy="725" grid="1" gridSize="10" guides="1" tooltips="1" connect="1" arrows="1" fold="1" page="1" pageScale="1" pageWidth="827" pageHeight="1169" math="0" shadow="0">
      <root>
        <mxCell id="0" />
        <mxCell id="1" parent="0" />
        <mxCell id="YDf9h79LXHMmd9ruEGU2-1" value="&amp;lt;&amp;lt;策略上下文&amp;gt;&amp;gt;&lt;div&gt;Context&lt;/div&gt;" style="swimlane;childLayout=stackLayout;horizontal=1;startSize=50;horizontalStack=0;rounded=1;fontSize=14;fontStyle=0;strokeWidth=2;resizeParent=0;resizeLast=1;shadow=0;dashed=0;align=center;arcSize=4;whiteSpace=wrap;html=1;" vertex="1" parent="1">
          <mxGeometry x="90" y="150" width="160" height="120" as="geometry" />
        </mxCell>
        <mxCell id="YDf9h79LXHMmd9ruEGU2-2" value="+ contextInterface()：void" style="align=left;strokeColor=none;fillColor=none;spacingLeft=4;spacingRight=4;fontSize=12;verticalAlign=top;resizable=0;rotatable=0;part=1;html=1;whiteSpace=wrap;" vertex="1" parent="YDf9h79LXHMmd9ruEGU2-1">
          <mxGeometry y="50" width="160" height="70" as="geometry" />
        </mxCell>
        <mxCell id="YDf9h79LXHMmd9ruEGU2-7" value="" style="endArrow=open;html=1;endSize=12;startArrow=diamondThin;startSize=14;startFill=0;edgeStyle=orthogonalEdgeStyle;align=left;verticalAlign=bottom;rounded=0;" edge="1" parent="1">
          <mxGeometry x="-1" y="3" relative="1" as="geometry">
            <mxPoint x="260" y="200" as="sourcePoint" />
            <mxPoint x="420" y="200" as="targetPoint" />
          </mxGeometry>
        </mxCell>
        <mxCell id="YDf9h79LXHMmd9ruEGU2-8" value="&amp;lt;&amp;lt;抽象接口&amp;gt;&amp;gt;&lt;div&gt;Strategy&lt;/div&gt;" style="swimlane;childLayout=stackLayout;horizontal=1;startSize=50;horizontalStack=0;rounded=1;fontSize=14;fontStyle=0;strokeWidth=2;resizeParent=0;resizeLast=1;shadow=0;dashed=0;align=center;arcSize=4;whiteSpace=wrap;html=1;" vertex="1" parent="1">
          <mxGeometry x="420" y="150" width="160" height="120" as="geometry" />
        </mxCell>
        <mxCell id="YDf9h79LXHMmd9ruEGU2-9" value="+ Operation A()：void" style="align=left;strokeColor=none;fillColor=none;spacingLeft=4;spacingRight=4;fontSize=12;verticalAlign=top;resizable=0;rotatable=0;part=1;html=1;whiteSpace=wrap;" vertex="1" parent="YDf9h79LXHMmd9ruEGU2-8">
          <mxGeometry y="50" width="160" height="70" as="geometry" />
        </mxCell>
        <mxCell id="YDf9h79LXHMmd9ruEGU2-14" value="&amp;lt;&amp;lt;具体策略&amp;gt;&amp;gt;&lt;div&gt;ConcreteStrategyA&lt;/div&gt;" style="swimlane;childLayout=stackLayout;horizontal=1;startSize=50;horizontalStack=0;rounded=1;fontSize=14;fontStyle=0;strokeWidth=2;resizeParent=0;resizeLast=1;shadow=0;dashed=0;align=center;arcSize=4;whiteSpace=wrap;html=1;" vertex="1" parent="1">
          <mxGeometry x="320" y="420" width="160" height="120" as="geometry" />
        </mxCell>
        <mxCell id="YDf9h79LXHMmd9ruEGU2-15" value="+ Operation A()：void" style="align=left;strokeColor=none;fillColor=none;spacingLeft=4;spacingRight=4;fontSize=12;verticalAlign=top;resizable=0;rotatable=0;part=1;html=1;whiteSpace=wrap;" vertex="1" parent="YDf9h79LXHMmd9ruEGU2-14">
          <mxGeometry y="50" width="160" height="70" as="geometry" />
        </mxCell>
        <mxCell id="YDf9h79LXHMmd9ruEGU2-16" value="&amp;lt;&amp;lt;具体策略&amp;gt;&amp;gt;&lt;div&gt;ConcreteStrategy&lt;/div&gt;" style="swimlane;childLayout=stackLayout;horizontal=1;startSize=50;horizontalStack=0;rounded=1;fontSize=14;fontStyle=0;strokeWidth=2;resizeParent=0;resizeLast=1;shadow=0;dashed=0;align=center;arcSize=4;whiteSpace=wrap;html=1;" vertex="1" parent="1">
          <mxGeometry x="580" y="420" width="160" height="120" as="geometry" />
        </mxCell>
        <mxCell id="YDf9h79LXHMmd9ruEGU2-22" value="实现" style="endArrow=open;endSize=12;dashed=1;html=1;rounded=0;entryX=0.606;entryY=1.043;entryDx=0;entryDy=0;entryPerimeter=0;" edge="1" parent="YDf9h79LXHMmd9ruEGU2-16" target="YDf9h79LXHMmd9ruEGU2-9">
          <mxGeometry width="160" relative="1" as="geometry">
            <mxPoint x="80" as="sourcePoint" />
            <mxPoint x="240" as="targetPoint" />
          </mxGeometry>
        </mxCell>
        <mxCell id="YDf9h79LXHMmd9ruEGU2-17" value="+ Operation A()：void" style="align=left;strokeColor=none;fillColor=none;spacingLeft=4;spacingRight=4;fontSize=12;verticalAlign=top;resizable=0;rotatable=0;part=1;html=1;whiteSpace=wrap;" vertex="1" parent="YDf9h79LXHMmd9ruEGU2-16">
          <mxGeometry y="50" width="160" height="70" as="geometry" />
        </mxCell>
        <mxCell id="YDf9h79LXHMmd9ruEGU2-20" value="实现" style="endArrow=open;endSize=12;dashed=1;html=1;rounded=0;exitX=0.415;exitY=0.003;exitDx=0;exitDy=0;exitPerimeter=0;entryX=0.456;entryY=1.062;entryDx=0;entryDy=0;entryPerimeter=0;curved=0;" edge="1" parent="1" source="YDf9h79LXHMmd9ruEGU2-14" target="YDf9h79LXHMmd9ruEGU2-9">
          <mxGeometry width="160" relative="1" as="geometry">
            <mxPoint x="359.99999999999994" y="357.72" as="sourcePoint" />
            <mxPoint x="507.68" y="310" as="targetPoint" />
          </mxGeometry>
        </mxCell>
      </root>
    </mxGraphModel>
  </diagram>
</mxfile>
